# xmcd CD database file
#
# Track frame offsets:
#	150
#	24772
#	44188
#	65551
#	85035
#
# Disc length: 1274 seconds
#
# Revision: 0
# Processed by: cddbd v1.5.1PL0 Copyright (c) Steve Scherf et al.
# Submitted via: CDex 1.51
#
DISCID=3904f805
DTITLE=日本國民 - シンセミヤ
DYEAR=1900
DGENRE=未分類 (日本)
TTITLE0=pianobroke
TTITLE1=Pebble
TTITLE2=sound of destroy
TTITLE3=Bad End (SAKURAGAOKA mix)
TTITLE4=To (HAPPY mix)
EXTD=
EXTT0=
EXTT1=
EXTT2=
EXTT3=
EXTT4=
PLAYORDER=
